<mxfile modified="2022-12-14T02:52:34.750Z" host="drawio-plugin" agent="5.0 (Macintosh; Intel Mac OS X 10_15_7) AppleWebKit/537.36 (KHTML, like Gecko) Chrome/104.0.5112.102 Safari/537.36" etag="vz9Y8ec1vHeDlQk6bGY0" version="20.5.3" type="embed"><diagram id="2y-wopMy5Lle05HrTWcG" name="Page-1"><mxGraphModel dx="903" dy="708" grid="1" gridSize="10" guides="1" tooltips="1" connect="1" arrows="1" fold="1" page="1" pageScale="1" pageWidth="850" pageHeight="1100" background="none" math="0" shadow="1"><root><mxCell id="0"/><mxCell id="1" parent="0"/><mxCell id="9UnkAYfGnmLMf_W8BQil-1" value="Keycloak" style="rounded=1;whiteSpace=wrap;html=1;strokeWidth=2;fontStyle=1;fillColor=#fff2cc;strokeColor=#000000;" parent="1" vertex="1"><mxGeometry x="192.5" y="140" width="120" height="60" as="geometry"/></mxCell><mxCell id="9UnkAYfGnmLMf_W8BQil-2" value="movies-ui" style="rounded=1;whiteSpace=wrap;html=1;strokeWidth=2;fontStyle=1;fillColor=#dae8fc;strokeColor=#000000;" parent="1" vertex="1"><mxGeometry x="380" y="320" width="120" height="60" as="geometry"/></mxCell><mxCell id="9UnkAYfGnmLMf_W8BQil-3" value="Redis" style="rounded=1;whiteSpace=wrap;html=1;strokeWidth=2;fontStyle=1;fillColor=#f8cecc;strokeColor=#b85450;" parent="1" vertex="1"><mxGeometry x="620" y="50" width="120" height="60" as="geometry"/></mxCell><mxCell id="9UnkAYfGnmLMf_W8BQil-4" value="movies-api" style="rounded=1;whiteSpace=wrap;html=1;strokeWidth=2;fontStyle=1;fillColor=#dae8fc;strokeColor=#000000;" parent="1" vertex="1"><mxGeometry x="380" y="140" width="120" height="60" as="geometry"/></mxCell><mxCell id="9UnkAYfGnmLMf_W8BQil-5" value="MySQL" style="rounded=1;whiteSpace=wrap;html=1;strokeWidth=2;fontStyle=1;fillColor=#d5e8d4;strokeColor=#000000;" parent="1" vertex="1"><mxGeometry x="20" y="140" width="120" height="60" as="geometry"/></mxCell><mxCell id="9UnkAYfGnmLMf_W8BQil-6" value="" style="endArrow=none;html=1;entryX=0;entryY=0.5;entryDx=0;entryDy=0;strokeWidth=2;exitX=1;exitY=0.5;exitDx=0;exitDy=0;" parent="1" source="9UnkAYfGnmLMf_W8BQil-5" target="9UnkAYfGnmLMf_W8BQil-1" edge="1"><mxGeometry width="50" height="50" relative="1" as="geometry"><mxPoint x="90" y="270" as="sourcePoint"/><mxPoint x="140" y="230" as="targetPoint"/></mxGeometry></mxCell><mxCell id="9UnkAYfGnmLMf_W8BQil-8" value="" style="endArrow=none;startArrow=classic;html=1;strokeWidth=2;exitX=0.942;exitY=0.984;exitDx=0;exitDy=0;strokeColor=#009900;exitPerimeter=0;entryX=0.081;entryY=0.002;entryDx=0;entryDy=0;endFill=0;entryPerimeter=0;" parent="1" source="9UnkAYfGnmLMf_W8BQil-1" target="9UnkAYfGnmLMf_W8BQil-2" edge="1"><mxGeometry width="50" height="50" relative="1" as="geometry"><mxPoint x="190" y="200" as="sourcePoint"/><mxPoint x="240" y="150" as="targetPoint"/></mxGeometry></mxCell><mxCell id="9UnkAYfGnmLMf_W8BQil-30" value="&lt;b&gt;2. Check&lt;br&gt;credentials&lt;/b&gt;" style="text;html=1;resizable=0;points=[];align=center;verticalAlign=middle;labelBackgroundColor=#ffffff;" parent="9UnkAYfGnmLMf_W8BQil-8" vertex="1" connectable="0"><mxGeometry x="0.0002" y="2" relative="1" as="geometry"><mxPoint x="-39.31" as="offset"/></mxGeometry></mxCell><mxCell id="9UnkAYfGnmLMf_W8BQil-9" value="" style="endArrow=classic;startArrow=none;html=1;strokeWidth=2;exitX=1;exitY=0.25;exitDx=0;exitDy=0;entryX=0;entryY=0.25;entryDx=0;entryDy=0;startFill=0;endFill=1;dashed=1;dashPattern=1 1;" parent="1" source="9UnkAYfGnmLMf_W8BQil-1" target="9UnkAYfGnmLMf_W8BQil-4" edge="1"><mxGeometry width="50" height="50" relative="1" as="geometry"><mxPoint x="180" y="300" as="sourcePoint"/><mxPoint x="230" y="250" as="targetPoint"/></mxGeometry></mxCell><mxCell id="9UnkAYfGnmLMf_W8BQil-10" value="" style="endArrow=classic;startArrow=none;html=1;strokeWidth=2;strokeColor=#009900;startFill=0;exitX=0.5;exitY=0;exitDx=0;exitDy=0;" parent="1" source="9UnkAYfGnmLMf_W8BQil-2" edge="1"><mxGeometry width="50" height="50" relative="1" as="geometry"><mxPoint x="440" y="290" as="sourcePoint"/><mxPoint x="440" y="200" as="targetPoint"/></mxGeometry></mxCell><mxCell id="9UnkAYfGnmLMf_W8BQil-31" value="&lt;b&gt;4. UI calls&lt;br&gt;API,&lt;br&gt;informing&amp;nbsp;&lt;br&gt;access&lt;br&gt;token&lt;br&gt;&lt;/b&gt;" style="text;html=1;resizable=0;points=[];align=center;verticalAlign=middle;labelBackgroundColor=#ffffff;" parent="9UnkAYfGnmLMf_W8BQil-10" vertex="1" connectable="0"><mxGeometry x="0.0667" relative="1" as="geometry"><mxPoint x="-15" y="4.14" as="offset"/></mxGeometry></mxCell><mxCell id="9UnkAYfGnmLMf_W8BQil-11" value="&lt;b&gt;Admin&lt;/b&gt;" style="shape=umlActor;verticalLabelPosition=bottom;labelBackgroundColor=#ffffff;verticalAlign=top;html=1;outlineConnect=0;strokeColor=#000000;strokeWidth=2;" parent="1" vertex="1"><mxGeometry x="340" y="20" width="30" height="60" as="geometry"/></mxCell><mxCell id="9UnkAYfGnmLMf_W8BQil-12" value="" style="endArrow=classic;html=1;strokeWidth=2;entryX=0.5;entryY=0;entryDx=0;entryDy=0;startArrow=none;startFill=0;strokeColor=#007FFF;" parent="1" target="9UnkAYfGnmLMf_W8BQil-4" edge="1"><mxGeometry width="50" height="50" relative="1" as="geometry"><mxPoint x="380" y="60" as="sourcePoint"/><mxPoint x="290" y="360" as="targetPoint"/><Array as="points"><mxPoint x="440" y="60"/></Array></mxGeometry></mxCell><mxCell id="9UnkAYfGnmLMf_W8BQil-13" value="&lt;b&gt;&lt;span&gt;3. Uses &lt;br&gt;access token&lt;br&gt;in&amp;nbsp;&lt;/span&gt;&lt;span&gt;Swagger&lt;br&gt;or curl&lt;br&gt;&lt;/span&gt;&lt;/b&gt;" style="text;html=1;resizable=0;points=[];align=center;verticalAlign=middle;labelBackgroundColor=#ffffff;" parent="9UnkAYfGnmLMf_W8BQil-12" vertex="1" connectable="0"><mxGeometry x="-0.0854" y="1" relative="1" as="geometry"><mxPoint x="19" y="26" as="offset"/></mxGeometry></mxCell><mxCell id="9UnkAYfGnmLMf_W8BQil-14" value="&lt;b style=&quot;font-size: 12px&quot;&gt;&lt;span&gt;1. username /&amp;nbsp;&lt;br&gt;password /&lt;br&gt;clientId&lt;br&gt;&lt;/span&gt;&lt;/b&gt;" style="endArrow=classic;html=1;strokeWidth=2;entryX=0.25;entryY=0;entryDx=0;entryDy=0;startArrow=none;startFill=0;strokeColor=#007FFF;endFill=1;" parent="1" target="9UnkAYfGnmLMf_W8BQil-1" edge="1"><mxGeometry x="0.1444" y="52" width="50" height="50" relative="1" as="geometry"><mxPoint x="330" y="60" as="sourcePoint"/><mxPoint x="220" y="320" as="targetPoint"/><Array as="points"><mxPoint x="223" y="60"/></Array><mxPoint x="-95" y="30" as="offset"/></mxGeometry></mxCell><mxCell id="9UnkAYfGnmLMf_W8BQil-17" value="&lt;b&gt;Admin&lt;/b&gt;" style="shape=umlActor;verticalLabelPosition=bottom;labelBackgroundColor=#ffffff;verticalAlign=top;html=1;outlineConnect=0;strokeColor=#000000;strokeWidth=2;" parent="1" vertex="1"><mxGeometry x="225" y="320" width="30" height="60" as="geometry"/></mxCell><mxCell id="9UnkAYfGnmLMf_W8BQil-18" value="" style="endArrow=classic;startArrow=none;html=1;strokeWidth=2;entryX=0;entryY=0.5;entryDx=0;entryDy=0;strokeColor=#009900;startFill=0;" parent="1" target="9UnkAYfGnmLMf_W8BQil-2" edge="1"><mxGeometry width="50" height="50" relative="1" as="geometry"><mxPoint x="260" y="350" as="sourcePoint"/><mxPoint x="330" y="290" as="targetPoint"/></mxGeometry></mxCell><mxCell id="9UnkAYfGnmLMf_W8BQil-23" value="&lt;b&gt;1. username /&lt;br&gt;password&lt;br&gt;&lt;/b&gt;" style="text;html=1;resizable=0;points=[];align=center;verticalAlign=middle;labelBackgroundColor=#ffffff;" parent="9UnkAYfGnmLMf_W8BQil-18" vertex="1" connectable="0"><mxGeometry x="-0.1833" y="1" relative="1" as="geometry"><mxPoint x="11" y="-19" as="offset"/></mxGeometry></mxCell><mxCell id="9UnkAYfGnmLMf_W8BQil-24" value="&lt;b&gt;User&lt;/b&gt;" style="shape=umlActor;verticalLabelPosition=bottom;labelBackgroundColor=#ffffff;verticalAlign=top;html=1;outlineConnect=0;strokeColor=#000000;strokeWidth=2;" parent="1" vertex="1"><mxGeometry x="192.5" y="300" width="30" height="60" as="geometry"/></mxCell><mxCell id="IaG4AMf1kBcs-ntEclLL-1" value="&lt;b&gt;&lt;span&gt;&lt;br&gt;&lt;/span&gt;&lt;/b&gt;" style="endArrow=classic;html=1;strokeWidth=2;startArrow=none;startFill=0;strokeColor=#007FFF;endFill=1;exitX=0.75;exitY=0;exitDx=0;exitDy=0;dashed=1;dashPattern=1 1;" parent="1" source="9UnkAYfGnmLMf_W8BQil-1" edge="1"><mxGeometry x="0.1444" y="47" width="50" height="50" relative="1" as="geometry"><mxPoint x="340" y="70" as="sourcePoint"/><mxPoint x="330" y="70" as="targetPoint"/><Array as="points"><mxPoint x="283" y="70"/></Array><mxPoint x="-90" y="20" as="offset"/></mxGeometry></mxCell><mxCell id="IaG4AMf1kBcs-ntEclLL-2" value="&lt;b&gt;2. Access&lt;br&gt;Token (JWT)&lt;/b&gt;" style="text;html=1;resizable=0;points=[];align=center;verticalAlign=middle;labelBackgroundColor=#ffffff;" parent="IaG4AMf1kBcs-ntEclLL-1" vertex="1" connectable="0"><mxGeometry x="-0.6239" relative="1" as="geometry"><mxPoint x="-3" y="-18" as="offset"/></mxGeometry></mxCell><mxCell id="nvl5jVca6n0dyb3dJHsa-2" value="" style="endArrow=none;startArrow=classic;html=1;strokeWidth=2;exitX=0.25;exitY=0;exitDx=0;exitDy=0;strokeColor=#009900;entryX=1;entryY=0.75;entryDx=0;entryDy=0;endFill=0;dashed=1;dashPattern=1 1;" parent="1" source="9UnkAYfGnmLMf_W8BQil-2" target="9UnkAYfGnmLMf_W8BQil-1" edge="1"><mxGeometry width="50" height="50" relative="1" as="geometry"><mxPoint x="315.53999999999985" y="209.04000000000008" as="sourcePoint"/><mxPoint x="389.9999999999999" y="300" as="targetPoint"/></mxGeometry></mxCell><mxCell id="nvl5jVca6n0dyb3dJHsa-3" value="&lt;b&gt;3. OK&lt;/b&gt;" style="text;html=1;resizable=0;points=[];align=center;verticalAlign=middle;labelBackgroundColor=#ffffff;" parent="nvl5jVca6n0dyb3dJHsa-2" vertex="1" connectable="0"><mxGeometry x="0.0002" y="2" relative="1" as="geometry"><mxPoint x="-9.730000000000004" y="-38.8" as="offset"/></mxGeometry></mxCell><mxCell id="nvl5jVca6n0dyb3dJHsa-4" value="" style="endArrow=none;startArrow=classic;html=1;strokeWidth=2;strokeColor=#009900;startFill=1;entryX=0.75;entryY=1;entryDx=0;entryDy=0;exitX=0.75;exitY=0;exitDx=0;exitDy=0;endFill=0;dashed=1;dashPattern=1 1;" parent="1" source="9UnkAYfGnmLMf_W8BQil-2" target="9UnkAYfGnmLMf_W8BQil-4" edge="1"><mxGeometry width="50" height="50" relative="1" as="geometry"><mxPoint x="449.9999999999999" y="300" as="sourcePoint"/><mxPoint x="449.9999999999999" y="210" as="targetPoint"/></mxGeometry></mxCell><mxCell id="nvl5jVca6n0dyb3dJHsa-5" value="&lt;b&gt;8. Movies Data&lt;br&gt;&lt;/b&gt;" style="text;html=1;resizable=0;points=[];align=center;verticalAlign=middle;labelBackgroundColor=#ffffff;" parent="nvl5jVca6n0dyb3dJHsa-4" vertex="1" connectable="0"><mxGeometry x="0.0667" relative="1" as="geometry"><mxPoint x="50" y="-2" as="offset"/></mxGeometry></mxCell><mxCell id="nvl5jVca6n0dyb3dJHsa-6" value="" style="endArrow=none;startArrow=classic;html=1;strokeWidth=2;entryX=0;entryY=0.5;entryDx=0;entryDy=0;strokeColor=#009900;startFill=1;endFill=0;dashed=1;dashPattern=1 1;" parent="1" edge="1"><mxGeometry width="50" height="50" relative="1" as="geometry"><mxPoint x="259.9999999999999" y="370" as="sourcePoint"/><mxPoint x="379.9999999999999" y="370" as="targetPoint"/></mxGeometry></mxCell><mxCell id="nvl5jVca6n0dyb3dJHsa-7" value="&lt;b&gt;9. Movie Data&lt;br&gt;&lt;/b&gt;" style="text;html=1;resizable=0;points=[];align=center;verticalAlign=middle;labelBackgroundColor=#ffffff;" parent="nvl5jVca6n0dyb3dJHsa-6" vertex="1" connectable="0"><mxGeometry x="-0.1833" y="1" relative="1" as="geometry"><mxPoint x="11.030000000000001" y="21" as="offset"/></mxGeometry></mxCell><mxCell id="nvl5jVca6n0dyb3dJHsa-8" value="" style="endArrow=none;startArrow=classic;html=1;strokeWidth=2;entryX=0;entryY=0.5;entryDx=0;entryDy=0;startFill=1;endFill=0;" parent="1" target="9UnkAYfGnmLMf_W8BQil-4" edge="1"><mxGeometry width="50" height="50" relative="1" as="geometry"><mxPoint x="311" y="170" as="sourcePoint"/><mxPoint x="389.9999999999999" y="180" as="targetPoint"/></mxGeometry></mxCell><mxCell id="2" value="MongoDB" style="rounded=1;whiteSpace=wrap;html=1;strokeWidth=2;fontStyle=1;fillColor=#d5e8d4;strokeColor=#000000;" vertex="1" parent="1"><mxGeometry x="620" y="230" width="120" height="60" as="geometry"/></mxCell><mxCell id="12" value="" style="endArrow=classic;startArrow=none;html=1;strokeWidth=2;entryX=1;entryY=0.25;entryDx=0;entryDy=0;startFill=0;endFill=1;dashed=1;dashPattern=1 1;edgeStyle=orthogonalEdgeStyle;" edge="1" parent="1" source="9UnkAYfGnmLMf_W8BQil-3" target="9UnkAYfGnmLMf_W8BQil-4"><mxGeometry width="50" height="50" relative="1" as="geometry"><mxPoint x="650" y="400" as="sourcePoint"/><mxPoint x="717.5" y="400" as="targetPoint"/></mxGeometry></mxCell><mxCell id="4" value="&lt;b&gt;5. Cache hit: &lt;br&gt;Read data &lt;br&gt;from cache&lt;br&gt;&lt;/b&gt;" style="text;html=1;resizable=0;points=[];align=center;verticalAlign=middle;labelBackgroundColor=#ffffff;" vertex="1" connectable="0" parent="1"><mxGeometry x="500" y="310" as="geometry"><mxPoint x="58" y="-196" as="offset"/></mxGeometry></mxCell><mxCell id="13" value="" style="endArrow=classic;startArrow=none;html=1;strokeWidth=2;startFill=0;endFill=1;dashed=1;dashPattern=1 1;edgeStyle=orthogonalEdgeStyle;exitX=0.5;exitY=0;exitDx=0;exitDy=0;" edge="1" parent="1" source="2"><mxGeometry width="50" height="50" relative="1" as="geometry"><mxPoint x="640" y="200" as="sourcePoint"/><mxPoint x="500" y="180" as="targetPoint"/><Array as="points"><mxPoint x="680" y="180"/></Array></mxGeometry></mxCell><mxCell id="5" value="&lt;b&gt;6. Cache miss: &lt;br&gt;Read data from &lt;br&gt;database&lt;br&gt;&lt;/b&gt;" style="text;html=1;resizable=0;points=[];align=center;verticalAlign=middle;labelBackgroundColor=#ffffff;" vertex="1" connectable="0" parent="1"><mxGeometry x="630" y="390" as="geometry"><mxPoint x="58" y="-196" as="offset"/></mxGeometry></mxCell><mxCell id="16" value="" style="endArrow=none;startArrow=classic;html=1;strokeWidth=2;entryX=1;entryY=0.5;entryDx=0;entryDy=0;startFill=1;endFill=0;edgeStyle=orthogonalEdgeStyle;" edge="1" parent="1" target="9UnkAYfGnmLMf_W8BQil-4"><mxGeometry width="50" height="50" relative="1" as="geometry"><mxPoint x="680" y="110" as="sourcePoint"/><mxPoint x="749" y="110" as="targetPoint"/><Array as="points"><mxPoint x="680" y="170"/></Array></mxGeometry></mxCell><mxCell id="11" value="&lt;b&gt;7. Write data to &lt;br&gt;cache&lt;br&gt;&lt;/b&gt;" style="text;html=1;resizable=0;points=[];align=center;verticalAlign=middle;labelBackgroundColor=#ffffff;" vertex="1" connectable="0" parent="1"><mxGeometry x="630" y="340" as="geometry"><mxPoint x="58" y="-196" as="offset"/></mxGeometry></mxCell></root></mxGraphModel></diagram></mxfile>